<svg version="1.1" xmlns="http://www.w3.org/2000/svg" width="18" height="18" viewBox="0 0 474 512"><path fill="currentColor" d="M0 0 C2.05211114 -0.00367969 4.10422021 -0.00895213 6.15632248 -0.01602173 C37.91863875 -0.11708327 37.91863875 -0.11708327 53.19863701 3.77561951 C54.26855888 4.04108582 55.33848076 4.30655212 56.44082451 4.58006287 C64.85416966 6.73744498 72.77641189 9.37800219 80.63613701 13.08811951 C81.82916435 13.65079529 81.82916435 13.65079529 83.04629326 14.22483826 C104.71439307 25.43247609 121.70634064 43.40575742 129.32363701 66.71311951 C137.55530973 93.45818316 135.17401942 123.03389299 122.32363701 147.83811951 C116.46215878 158.19643026 109.68478112 169.05896593 100.51113701 176.77561951 C97.7630897 179.09964955 97.7630897 179.09964955 95.15957451 181.58030701 C89.99243459 186.69445062 83.97931057 190.61732642 77.63613701 194.08811951 C76.30582451 195.04718201 76.30582451 195.04718201 74.94863701 196.02561951 C67.18873428 200.85725706 58.41613859 203.69887129 49.63613701 206.08811951 C53.73881888 216.1396901 59.62869426 225.07695539 65.63613701 234.08811951 C65.63613701 235.07811951 65.63613701 236.06811951 65.63613701 237.08811951 C66.29613701 237.08811951 66.95613701 237.08811951 67.63613701 237.08811951 C68.89785576 238.92405701 68.89785576 238.92405701 70.32363701 241.46311951 C73.90434784 247.63766233 77.91611444 253.45231045 82.19082451 259.16624451 C85.63613701 263.79892459 85.63613701 263.79892459 85.63613701 267.08811951 C86.62613701 267.41811951 87.61613701 267.74811951 88.63613701 268.08811951 C90.67910576 270.74046326 90.67910576 270.74046326 92.82363701 274.02561951 C93.5390667 275.10714294 94.25449638 276.18866638 94.99160576 277.30296326 C96.63613701 280.08811951 96.63613701 280.08811951 96.63613701 282.08811951 C97.62613701 282.41811951 98.61613701 282.74811951 99.63613701 283.08811951 C100.59064962 284.45170896 101.53461743 285.82400727 102.42129326 287.23265076 C108.14020517 295.96732329 115.33109642 303.85382901 121.95254326 311.90452576 C122.6731292 312.79011169 123.39371513 313.67569763 124.13613701 314.58811951 C124.78582451 315.38218201 125.43551201 316.17624451 126.10488701 316.99436951 C127.63613701 319.08811951 127.63613701 319.08811951 128.63613701 322.08811951 C129.62613701 322.41811951 130.61613701 322.74811951 131.63613701 323.08811951 C133.28457451 324.97874451 133.28457451 324.97874451 135.01113701 327.33811951 C139.3637672 333.09922085 144.31043206 337.74578179 149.76894951 342.43968201 C151.63613701 344.08811951 151.63613701 344.08811951 153.06191826 345.57249451 C155.11325513 347.54747889 157.35840072 349.09322105 159.69863701 350.71311951 C160.57648857 351.32413513 161.45434013 351.93515076 162.35879326 352.56468201 C164.53745348 354.09111275 164.53745348 354.09111275 166.63613701 355.08811951 C166.63613701 355.74811951 166.63613701 356.40811951 166.63613701 357.08811951 C167.35801201 357.19124451 168.07988701 357.29436951 168.82363701 357.40061951 C171.63613701 358.08811951 171.63613701 358.08811951 173.89394951 359.50218201 C181.76139053 364.05229747 191.76839252 365.47580233 200.63613701 367.08811951 C200.63613701 372.69811951 200.63613701 378.30811951 200.63613701 384.08811951 C190.24580549 388.30290721 181.16256644 388.76558778 170.13613701 388.65061951 C169.29597038 388.64735657 168.45580376 388.64409363 167.59017754 388.64073181 C152.30843229 388.55401757 138.21590794 387.22465414 124.49111748 380.03733826 C121.60464565 378.56029134 118.62824105 377.33482952 115.63613701 376.08811951 C115.63613701 375.42811951 115.63613701 374.76811951 115.63613701 374.08811951 C114.83176201 373.90249451 114.02738701 373.71686951 113.19863701 373.52561951 C108.2960255 371.54737276 104.69411913 368.42065231 100.63613701 365.08811951 C99.76988701 364.44874451 98.90363701 363.80936951 98.01113701 363.15061951 C94.50826638 360.10865291 91.62964486 356.62388941 88.63613701 353.08811951 C87.67201595 351.97421233 86.70711701 350.86097815 85.74160576 349.74827576 C84.7269063 348.57021457 83.7125838 347.39182858 82.69863701 346.21311951 C82.20154228 345.64150085 81.70444756 345.0698822 81.19228935 344.48094177 C77.63613701 340.31592739 77.63613701 340.31592739 77.63613701 338.08811951 C76.97613701 338.08811951 76.31613701 338.08811951 75.63613701 338.08811951 C75.38863701 337.51061951 75.14113701 336.93311951 74.88613701 336.33811951 C73.73169734 334.01202993 73.73169734 334.01202993 71.79238701 332.26780701 C69.52494533 329.97571922 67.73112584 327.60444967 65.88613701 324.96311951 C65.27254326 324.09429138 64.65894951 323.22546326 64.02676201 322.33030701 C62.63613701 320.08811951 62.63613701 320.08811951 62.63613701 318.08811951 C61.97613701 318.08811951 61.31613701 318.08811951 60.63613701 318.08811951 C59.44071223 316.40686939 58.32900858 314.66563868 57.26113701 312.90061951 C54.92790898 309.06158573 52.44128709 305.59176314 49.63613701 302.08811951 C48.62094481 300.43066285 47.62069139 298.76395675 46.63613701 297.08811951 C45.48357608 295.41166724 44.31666309 293.74499822 43.13613701 292.08811951 C40.81309804 288.82771394 38.68364598 285.52708807 36.63613701 282.08811951 C34.78501316 279.25792159 32.92799449 276.43192067 31.06191826 273.61155701 C29.63613701 271.08811951 29.63613701 271.08811951 29.63613701 268.08811951 C28.97613701 268.08811951 28.31613701 268.08811951 27.63613701 268.08811951 C26.37441826 266.28733826 26.37441826 266.28733826 24.94863701 263.77561951 C22.76435886 260.00229229 20.51194077 256.30651265 18.13613701 252.65061951 C15.18129704 248.04550468 12.54385141 243.32734041 9.96816826 238.50218201 C8.60861349 235.9493854 8.60861349 235.9493854 6.63613701 233.15061951 C4.07920528 229.2353178 2.12153455 225.10542048 0.10098076 220.89280701 C-0.38241768 219.96726013 -0.86581612 219.04171326 -1.36386299 218.08811951 C-1.71215157 217.38211609 -2.06044014 216.67611267 -2.41928291 215.94871521 C-5.46998515 213.02976961 -8.93956532 213.50453591 -12.94198799 213.51390076 C-13.78678719 213.49973618 -14.63158638 213.48557159 -15.50198555 213.47097778 C-18.20607281 213.42903135 -20.90949622 213.41384556 -23.61386299 213.40061951 C-26.30363441 213.37145099 -28.99324167 213.33672011 -31.68289375 213.29812622 C-33.35571073 213.27586262 -35.02862763 213.2599087 -36.70157051 213.25128174 C-37.47216805 213.24424728 -38.24276558 213.23721283 -39.03671455 213.22996521 C-39.70495247 213.22648575 -40.37319038 213.22300629 -41.06167793 213.21942139 C-44.19405929 213.04077043 -47.26377355 212.55956593 -50.36386299 212.08811951 C-50.30303246 226.5452821 -50.22513701 241.00226913 -50.12814808 255.45923615 C-50.08339749 262.17357186 -50.044302 268.88784586 -50.01742744 275.60227966 C-49.99124899 282.09281519 -49.95074518 288.58312321 -49.90067673 295.07351685 C-49.88410584 297.53874869 -49.87253115 300.00401979 -49.86624908 302.46929932 C-50.15991563 329.37802192 -50.15991563 329.37802192 -40.42636299 353.96311951 C-31.22078164 360.35066575 -18.92381402 361.09177467 -8.05136299 362.33811951 C-6.61698631 362.51151105 -5.18274002 362.68598483 -3.74862862 362.86155701 C-0.28847558 363.28484174 3.17320298 363.68599993 6.63613701 364.08811951 C6.63613701 370.68811951 6.63613701 377.28811951 6.63613701 384.08811951 C4.97679131 384.05782654 3.3174456 384.02753357 1.6078167 383.99632263 C-47.75896011 383.10353619 -96.99322131 383.09627503 -146.36386299 384.08811951 C-146.36386299 377.48811951 -146.36386299 370.88811951 -146.36386299 364.08811951 C-141.09061867 362.91628744 -136.21120103 361.85750867 -130.92636299 361.15061951 C-125.89231122 360.41292142 -121.20743537 359.29144446 -116.38730049 357.67405701 C-114.36386299 357.08811951 -114.36386299 357.08811951 -111.36386299 357.08811951 C-111.03386299 356.09811951 -110.70386299 355.10811951 -110.36386299 354.08811951 C-109.76573799 353.51061951 -109.16761299 352.93311951 -108.55136299 352.33811951 C-103.19493815 346.82865396 -101.58458196 341.1758603 -100.63812447 333.77148438 C-100.51625405 332.86014002 -100.39438363 331.94879567 -100.26882017 331.00983483 C-98.86040418 319.41836954 -98.94375865 307.81288019 -98.9756794 296.15428162 C-98.97160372 293.62208837 -98.9662563 291.08989691 -98.95974922 288.55770874 C-98.94759003 282.44772275 -98.94923026 276.33788251 -98.95798714 270.22789495 C-98.96481491 265.25430281 -98.96565867 260.28074157 -98.9624157 255.30714607 C-98.961956 254.5941719 -98.9614963 253.88119772 -98.96102267 253.14661827 C-98.96006331 251.6973851 -98.95909067 250.24815194 -98.95810489 248.79891879 C-98.94958946 235.27064922 -98.95932461 221.74244105 -98.97550599 208.21418155 C-98.98890856 196.65186652 -98.98657408 185.0896419 -98.97274971 173.52732849 C-98.95663043 160.03966415 -98.95041005 146.55205334 -98.9595865 133.06438071 C-98.96054196 131.6213462 -98.96148508 130.17831169 -98.9624157 128.73527718 C-98.96287852 128.02561749 -98.96334135 127.31595781 -98.9638182 126.58479328 C-98.96638892 121.62711227 -98.96207903 116.66946575 -98.95497704 111.71179008 C-98.94559697 105.01795511 -98.95244363 98.32431499 -98.96965981 91.63048744 C-98.97359096 89.18939874 -98.9725493 86.74829556 -98.96587181 84.30721283 C-98.93805927 73.09733859 -99.07135926 62.02948619 -100.63812447 50.9128418 C-100.79986686 49.71816218 -100.79986686 49.71816218 -100.96487677 48.49934763 C-101.81752752 43.23128183 -103.61552462 39.64309902 -106.36386299 35.08811951 C-106.36386299 34.09811951 -106.36386299 33.10811951 -106.36386299 32.08811951 C-108.83886299 31.09811951 -108.83886299 31.09811951 -111.36386299 30.08811951 C-111.36386299 29.42811951 -111.36386299 28.76811951 -111.36386299 28.08811951 C-122.97488941 25.19271165 -134.54021079 22.95011198 -146.36386299 21.08811951 C-146.36386299 14.48811951 -146.36386299 7.88811951 -146.36386299 1.08811951 C-131.30332508 0.95521057 -116.24276803 0.82467891 -101.18218517 0.69696808 C-94.18291969 0.6375613 -87.18366215 0.57742336 -80.18441963 0.5153656 C-53.45681301 0.27885273 -26.72874148 0.04314473 0 0 Z M-50.36386299 30.08811951 C-50.36386299 80.24811951 -50.36386299 130.40811951 -50.36386299 182.08811951 C6.2542757 186.79842483 6.2542757 186.79842483 55.63613701 163.08811951 C60.2907701 158.82275288 64.49147559 154.591277 67.63613701 149.08811951 C67.63613701 148.42811951 67.63613701 147.76811951 67.63613701 147.08811951 C68.29613701 147.08811951 68.95613701 147.08811951 69.63613701 147.08811951 C81.14521465 128.03692291 83.2031899 102.70965935 78.19351006 81.31126404 C73.05019018 62.86499749 62.26373494 48.43085597 45.58144951 38.91624451 C43.62720384 37.89595561 41.65075582 36.98264137 39.63613701 36.08811951 C38.94777763 35.75038513 38.25941826 35.41265076 37.55019951 35.06468201 C22.1537943 28.07587009 4.65393642 28.66037411 -11.87143135 28.80686951 C-15.45169631 28.8383422 -19.03151942 28.84788821 -22.61190987 28.85374451 C-24.91595166 28.86290567 -27.21998902 28.87327859 -29.52401924 28.88499451 C-30.580411 28.88924438 -31.63680275 28.89349426 -32.72520638 28.89787292 C-33.727528 28.90748047 -34.72984962 28.91708801 -35.76254463 28.92698669 C-37.06343781 28.9372287 -37.06343781 28.9372287 -38.39061165 28.94767761 C-42.39529386 29.13683927 -46.37923674 29.64538326 -50.36386299 30.08811951 Z " fill="#FFFFFF" transform="translate(146.363862991333,123.91188049316406)" /><path d="M0 0 C1.12112938 -0.01354271 1.12112938 -0.01354271 2.26490784 -0.02735901 C3.84054626 -0.04177568 5.41624337 -0.0507267 6.99194336 -0.05444336 C9.34273184 -0.06622495 11.69078812 -0.11539078 14.04101562 -0.16601562 C34.53696286 -0.38414918 50.86130576 6.3765717 65.94140625 20.37109375 C71.94140625 27.13409953 71.94140625 27.13409953 71.94140625 30.37109375 C72.93140625 30.70109375 73.92140625 31.03109375 74.94140625 31.37109375 C76.00792817 33.67478111 77.0056163 36.01127562 77.94140625 38.37109375 C78.60140625 39.36109375 79.26140625 40.35109375 79.94140625 41.37109375 C79.90625 43.37109375 79.90625 43.37109375 78.94140625 45.37109375 C76.5703125 46.93359375 76.5703125 46.93359375 73.50390625 48.37109375 C72.42109375 48.88027344 71.33828125 49.38945313 70.22265625 49.9140625 C56.5819742 55.97117489 56.5819742 55.97117489 51.94140625 56.37109375 C49.07636509 54.38013294 47.51920893 51.26819997 45.75390625 48.30859375 C45.22410156 47.43074219 44.69429688 46.55289063 44.1484375 45.6484375 C42.94140625 43.37109375 42.94140625 43.37109375 42.94140625 41.37109375 C42.34328125 41.10296875 41.74515625 40.83484375 41.12890625 40.55859375 C38.91673899 39.35770295 37.70812455 38.13781205 35.94140625 36.37109375 C26.73270155 29.65195166 15.24104089 26.94763328 3.94140625 28.37109375 C-7.96424733 30.73821782 -17.06855248 36.40569964 -24.05859375 46.37109375 C-40.77691139 71.56764655 -35.88263868 121.69180952 -30.48803711 149.73754883 C-28.37591638 159.33842807 -24.09295666 168.42089231 -16.05859375 174.37109375 C-4.18820106 181.85764833 9.03889786 182.92291358 22.62890625 180.24609375 C32.23917364 177.77750655 39.21663751 172.43916161 44.94140625 164.37109375 C47.62762302 159.69036103 48.93110077 155.15145771 50.06640625 149.93359375 C50.23527344 149.22783203 50.40414062 148.52207031 50.578125 147.79492188 C52.22160938 140.39924217 52.54983583 132.91664316 52.94140625 125.37109375 C51.1771228 125.37894897 51.1771228 125.37894897 49.37719727 125.38696289 C45.02938594 125.40501038 40.68157795 125.41652483 36.33374023 125.42602539 C34.44896895 125.43106619 32.5642016 125.43789873 30.67944336 125.4465332 C27.97638989 125.45860992 25.27338794 125.46432443 22.5703125 125.46875 C21.29843834 125.47649193 21.29843834 125.47649193 20.00086975 125.48439026 C17.98069557 125.4845857 15.96062691 125.43315586 13.94140625 125.37109375 C12.13861434 123.56830184 12.8110402 120.83061674 12.80859375 118.40234375 C12.80730469 117.19191406 12.80601562 115.98148437 12.8046875 114.734375 C12.80855469 113.45949219 12.81242187 112.18460937 12.81640625 110.87109375 C12.81253906 109.59621094 12.80867188 108.32132812 12.8046875 107.0078125 C12.80597656 105.79738281 12.80726563 104.58695312 12.80859375 103.33984375 C12.80972168 102.22029297 12.81084961 101.10074219 12.81201172 99.94726562 C12.94140625 97.37109375 12.94140625 97.37109375 13.94140625 96.37109375 C16.11403305 96.27153097 18.28993731 96.24309656 20.46484375 96.24169922 C21.14613342 96.2399469 21.8274231 96.23819458 22.52935791 96.23638916 C24.79173292 96.23197133 27.05403038 96.23490837 29.31640625 96.23828125 C30.88199885 96.23760819 32.44759135 96.23663815 34.01318359 96.23538208 C37.2985127 96.2339052 40.58381467 96.23605934 43.86914062 96.24072266 C48.08961141 96.24641995 52.31001861 96.24314089 56.53048706 96.23715019 C59.76457197 96.23354431 62.9986417 96.23468329 66.23272705 96.23727798 C67.78932706 96.23794718 69.34592843 96.23711909 70.90252686 96.23479843 C73.07437821 96.23227145 75.24612521 96.2361131 77.41796875 96.24169922 C78.65627441 96.24249481 79.89458008 96.24329041 81.17041016 96.24411011 C83.94140625 96.37109375 83.94140625 96.37109375 84.94140625 97.37109375 C85.05528008 98.8097766 85.10095548 100.25394456 85.1184082 101.69702148 C85.13766106 103.08128578 85.13766106 103.08128578 85.15730286 104.49351501 C85.16468979 105.50370193 85.17207672 106.51388885 85.1796875 107.5546875 C85.18775925 108.59818863 85.19583099 109.64168976 85.20414734 110.71681213 C85.21802461 112.94213182 85.22873033 115.16747312 85.23657227 117.39282227 C85.25353598 120.73563056 85.29735549 124.07738354 85.34179688 127.41992188 C85.51740318 151.71553007 81.48714031 174.69178804 64.37109375 193.046875 C60.55709945 196.69531006 56.40189291 199.57294697 51.94140625 202.37109375 C50.88953125 203.07234375 49.83765625 203.77359375 48.75390625 204.49609375 C39.6880103 209.4469731 29.2147405 212.18717216 18.94140625 212.37109375 C17.96929199 212.39961426 17.96929199 212.39961426 16.97753906 212.42871094 C-6.17839906 213.06930605 -25.72754944 210.2373886 -43.51171875 194.15234375 C-47.38281372 190.41660175 -47.38281372 190.41660175 -49.05859375 188.37109375 C-49.05859375 187.71109375 -49.05859375 187.05109375 -49.05859375 186.37109375 C-49.71859375 186.37109375 -50.37859375 186.37109375 -51.05859375 186.37109375 C-53.4098299 183.25449921 -55.20836624 179.80200945 -57.05859375 176.37109375 C-57.50847656 175.53707031 -57.95835937 174.70304688 -58.421875 173.84375 C-67.75672623 154.16253116 -67.24571696 129.95437795 -67.24389648 108.61474609 C-67.24607417 105.7716554 -67.26427586 102.92895959 -67.28320312 100.0859375 C-67.35877035 75.71359501 -65.53253963 52.22315921 -54.05859375 30.37109375 C-53.39859375 30.37109375 -52.73859375 30.37109375 -52.05859375 30.37109375 C-51.9915625 29.82710937 -51.92453125 29.283125 -51.85546875 28.72265625 C-50.71806473 25.36619929 -48.68572541 23.35531223 -46.30859375 20.74609375 C-45.4475 19.78445312 -44.58640625 18.8228125 -43.69921875 17.83203125 C-41.15594419 15.46181976 -39.34621204 14.37630078 -36.05859375 13.37109375 C-36.05859375 12.71109375 -36.05859375 12.05109375 -36.05859375 11.37109375 C-24.48501792 5.36268417 -13.25847794 0.10262353 0 0 Z " fill="#FFFFFF" transform="translate(389.05859375,-0.37109375)" /></svg>